<svg width="50" height="50" viewBox="0 0 50 50" fill="none" xmlns="http://www.w3.org/2000/svg">
<g clip-path="url(#clip0_855_680)">
<path d="M18.75 25C21.2223 25 23.639 24.2669 25.6946 22.8934C27.7502 21.5199 29.3524 19.5676 30.2985 17.2835C31.2446 14.9995 31.4921 12.4861 31.0098 10.0614C30.5275 7.63661 29.337 5.40933 27.5888 3.66117C25.8407 1.91301 23.6134 0.722505 21.1886 0.24019C18.7639 -0.242126 16.2505 0.00541608 13.9665 0.951511C11.6824 1.89761 9.73015 3.49976 8.35663 5.55538C6.98311 7.61099 6.25 10.0277 6.25 12.5C6.25331 15.8142 7.57133 18.9917 9.91482 21.3352C12.2583 23.6787 15.4358 24.9967 18.75 25ZM18.75 4.16667C20.3982 4.16667 22.0093 4.65541 23.3798 5.57109C24.7502 6.48677 25.8183 7.78826 26.449 9.31098C27.0797 10.8337 27.2448 12.5092 26.9232 14.1258C26.6017 15.7423 25.808 17.2271 24.6426 18.3926C23.4771 19.558 21.9923 20.3517 20.3758 20.6732C18.7592 20.9948 17.0837 20.8297 15.561 20.199C14.0383 19.5683 12.7368 18.5002 11.8211 17.1298C10.9054 15.7593 10.4167 14.1482 10.4167 12.5C10.4167 10.2899 11.2946 8.17025 12.8574 6.60745C14.4202 5.04465 16.5399 4.16667 18.75 4.16667V4.16667Z" fill="#26658C"/>
<path d="M18.75 29.166C13.7791 29.1721 9.01344 31.1495 5.49845 34.6644C1.98345 38.1794 0.00606449 42.945 0 47.916C0 48.4685 0.219493 48.9984 0.610194 49.3891C1.00089 49.7798 1.5308 49.9993 2.08333 49.9993C2.63587 49.9993 3.16577 49.7798 3.55647 49.3891C3.94717 48.9984 4.16667 48.4685 4.16667 47.916C4.16667 44.0482 5.70312 40.3389 8.43803 37.604C11.1729 34.8691 14.8823 33.3327 18.75 33.3327C22.6177 33.3327 26.3271 34.8691 29.062 37.604C31.7969 40.3389 33.3333 44.0482 33.3333 47.916C33.3333 48.4685 33.5528 48.9984 33.9435 49.3891C34.3342 49.7798 34.8641 49.9993 35.4167 49.9993C35.9692 49.9993 36.4991 49.7798 36.8898 49.3891C37.2805 48.9984 37.5 48.4685 37.5 47.916C37.4939 42.945 35.5165 38.1794 32.0016 34.6644C28.4866 31.1495 23.7209 29.1721 18.75 29.166V29.166Z" fill="#26658C"/>
<path d="M45.8326 16.4062C44.6732 16.464 43.5839 16.9787 42.803 17.8376C42.0221 18.6966 41.6133 19.8299 41.666 20.9896C41.7186 19.8299 41.3098 18.6966 40.5289 17.8376C39.748 16.9787 38.6587 16.464 37.4993 16.4062C36.3399 16.464 35.2506 16.9787 34.4697 17.8376C33.6888 18.6966 33.28 19.8299 33.3327 20.9896C33.3327 24.5938 38.0326 28.8167 40.3743 30.6958C40.7408 30.9893 41.1964 31.1492 41.666 31.1492C42.1355 31.1492 42.5911 30.9893 42.9576 30.6958C45.2993 28.8208 49.9993 24.5938 49.9993 20.9896C50.0519 19.8299 49.6431 18.6966 48.8622 17.8376C48.0814 16.9787 46.992 16.464 45.8326 16.4062V16.4062Z" fill="#26658C"/>
</g>
<defs>
<clipPath id="clip0_855_680">
<rect width="50" height="50" fill="white"/>
</clipPath>
</defs>
</svg>
