<svg width="50" height="50" viewBox="0 0 50 50" fill="none" xmlns="http://www.w3.org/2000/svg">
<g clip-path="url(#clip0_855_676)">
<path d="M18.6771 50H8.33333C6.1232 50 4.00358 49.122 2.44078 47.5592C0.877974 45.9964 0 43.8768 0 41.6667V31.25C0 29.0399 0.877974 26.9202 2.44078 25.3574C4.00358 23.7946 6.1232 22.9167 8.33333 22.9167H26.7854C27.9129 22.9172 29.0212 23.2088 30.003 23.7632C30.9848 24.3176 31.8068 25.116 32.3896 26.0812L39.0917 18.7167C39.646 18.1071 40.3151 17.6127 41.0606 17.2618C41.8061 16.9109 42.6135 16.7104 43.4366 16.6717C44.2596 16.633 45.0823 16.7569 45.8574 17.0363C46.6326 17.3157 47.3451 17.7451 47.9542 18.3C49.1695 19.4165 49.8979 20.9656 49.9824 22.6138C50.067 24.262 49.501 25.8775 48.4062 27.1125L34.2396 43.0229C32.2836 45.2167 29.886 46.9723 27.204 48.1747C24.5221 49.3771 21.6163 49.9991 18.6771 50ZM8.33333 27.0833C7.22826 27.0833 6.16846 27.5223 5.38705 28.3037C4.60565 29.0851 4.16667 30.1449 4.16667 31.25V41.6667C4.16667 42.7717 4.60565 43.8315 5.38705 44.6129C6.16846 45.3943 7.22826 45.8333 8.33333 45.8333H18.6771C21.0269 45.8324 23.35 45.3349 25.4942 44.3734C27.6383 43.4119 29.555 42.0082 31.1187 40.2542L45.2958 24.3417C45.6639 23.9271 45.8544 23.3845 45.8264 22.8308C45.7983 22.2771 45.5539 21.7565 45.1458 21.3812C44.7309 21.0082 44.1868 20.8116 43.6292 20.8333C43.3527 20.845 43.0814 20.9117 42.831 21.0293C42.5807 21.147 42.3562 21.3134 42.1708 21.5188L32.95 31.6667C32.5452 32.787 31.8438 33.7764 30.9206 34.5293C29.9975 35.2823 28.8872 35.7704 27.7083 35.9417L16.9562 37.4792C16.4092 37.5576 15.8535 37.4156 15.4112 37.0843C14.9689 36.7529 14.6764 36.2595 14.5979 35.7125C14.5195 35.1655 14.6615 34.6097 14.9928 34.1674C15.3241 33.7252 15.8176 33.4326 16.3646 33.3542L27.1187 31.8187C27.7157 31.7353 28.2587 31.4284 28.6381 30.96C29.0175 30.4916 29.205 29.8967 29.1626 29.2954C29.1203 28.6942 28.8514 28.1314 28.4101 27.7208C27.9688 27.3102 27.3882 27.0823 26.7854 27.0833H8.33333ZM22.9167 18.9042C21.9724 18.9067 21.0557 18.5862 20.3187 17.9958C16.7521 15.1333 12.5 10.8333 12.5 6.66667C12.4488 4.95493 13.0777 3.29259 14.2489 2.04326C15.4202 0.793924 17.0385 0.0592754 18.75 0C20.307 0.00606422 21.8008 0.616287 22.9167 1.70208C24.0326 0.616287 25.5264 0.00606422 27.0833 0C28.7948 0.0592754 30.4132 0.793924 31.5844 2.04326C32.7557 3.29259 33.3845 4.95493 33.3333 6.66667C33.3333 10.8333 29.0812 15.1333 25.5125 17.9979C24.7758 18.5871 23.86 18.9068 22.9167 18.9042V18.9042ZM18.75 4.16667C18.1445 4.22742 17.587 4.52337 17.1974 4.99088C16.8078 5.45839 16.6172 6.06012 16.6667 6.66667C16.6667 8.54167 19.0646 11.6458 22.9292 14.7479C26.7687 11.6458 29.1667 8.54167 29.1667 6.66667C29.2161 6.06012 29.0255 5.45839 28.6359 4.99088C28.2463 4.52337 27.6889 4.22742 27.0833 4.16667C26.4778 4.22742 25.9203 4.52337 25.5307 4.99088C25.1411 5.45839 24.9506 6.06012 25 6.66667C25 7.2192 24.7805 7.7491 24.3898 8.13981C23.9991 8.53051 23.4692 8.75 22.9167 8.75C22.3641 8.75 21.8342 8.53051 21.4435 8.13981C21.0528 7.7491 20.8333 7.2192 20.8333 6.66667C20.8828 6.06012 20.6922 5.45839 20.3026 4.99088C19.913 4.52337 19.3555 4.22742 18.75 4.16667V4.16667Z" fill="#8A8A8A"/>
</g>
<defs>
<clipPath id="clip0_855_676">
<rect width="50" height="50" fill="white"/>
</clipPath>
</defs>
</svg>
