<svg width="50" height="50" viewBox="0 0 50 50" fill="none" xmlns="http://www.w3.org/2000/svg">
<g clip-path="url(#clip0_855_690)">
<path d="M24.9985 4.16724C27.7621 4.17631 30.4964 4.73336 33.0433 5.80617C35.5901 6.87898 37.8989 8.44624 39.836 10.4172H33.3319C32.7793 10.4172 32.2494 10.6367 31.8587 11.0274C31.468 11.4181 31.2485 11.948 31.2485 12.5006C31.2485 13.0531 31.468 13.583 31.8587 13.9737C32.2494 14.3644 32.7793 14.5839 33.3319 14.5839H41.9631C42.989 14.5834 43.9727 14.1756 44.6981 13.4502C45.4236 12.7248 45.8313 11.741 45.8319 10.7152V2.08391C45.8319 1.53137 45.6124 1.00147 45.2217 0.610769C44.831 0.220068 44.3011 0.000574926 43.7485 0.000574926C43.196 0.000574926 42.6661 0.220068 42.2754 0.610769C41.8847 1.00147 41.6652 1.53137 41.6652 2.08391V6.41308C38.2218 3.31194 33.9831 1.2306 29.4238 0.402135C24.8644 -0.426324 20.1644 0.0308082 15.8502 1.72234C11.5359 3.41387 7.77775 6.27302 4.99649 9.97958C2.21523 13.6862 0.520721 18.0938 0.102717 22.7089C0.0758072 22.999 0.109625 23.2916 0.202015 23.5679C0.294404 23.8442 0.443341 24.0983 0.639334 24.3139C0.835328 24.5295 1.07408 24.7019 1.34038 24.8201C1.60668 24.9383 1.89469 24.9998 2.18605 25.0006C2.69561 25.0071 3.18925 24.8232 3.57034 24.4848C3.95143 24.1465 4.19254 23.6781 4.24647 23.1714C4.71025 17.9855 7.09641 13.1604 10.9362 9.64399C14.776 6.1276 19.7919 4.1741 24.9985 4.16724Z" fill="#8A8A8A"/>
<path d="M47.812 25.0002C47.3024 24.9937 46.8088 25.1776 46.4277 25.5159C46.0466 25.8542 45.8055 26.3226 45.7516 26.8293C45.4072 30.7944 43.9326 34.5775 41.5029 37.7298C39.0732 40.8821 35.7902 43.2712 32.0435 44.6139C28.2968 45.9565 24.2436 46.1962 20.3648 45.3046C16.4859 44.413 12.9443 42.4274 10.1599 39.5835H16.6641C17.2166 39.5835 17.7465 39.364 18.1372 38.9733C18.5279 38.5826 18.7474 38.0527 18.7474 37.5002C18.7474 36.9477 18.5279 36.4178 18.1372 36.0271C17.7465 35.6364 17.2166 35.4169 16.6641 35.4169H8.03281C7.52468 35.4166 7.02148 35.5165 6.55198 35.7108C6.08248 35.9051 5.65588 36.1901 5.29658 36.5494C4.93728 36.9087 4.65232 37.3353 4.458 37.8048C4.26367 38.2743 4.16379 38.7775 4.16406 39.2856V47.9169C4.16406 48.4694 4.38356 48.9993 4.77426 49.39C5.16496 49.7807 5.69486 50.0002 6.2474 50.0002C6.79993 50.0002 7.32983 49.7807 7.72054 49.39C8.11124 48.9993 8.33073 48.4694 8.33073 47.9169V43.5877C11.7741 46.6889 16.0128 48.7702 20.5722 49.5987C25.1315 50.4271 29.8315 49.97 34.1458 48.2785C38.46 46.5869 42.2182 43.7278 44.9995 40.0212C47.7807 36.3146 49.4752 31.907 49.8932 27.2918C49.9201 27.0017 49.8863 26.7092 49.7939 26.4328C49.7015 26.1565 49.5526 25.9025 49.3566 25.6869C49.1606 25.4713 48.9219 25.2989 48.6556 25.1806C48.3893 25.0624 48.1013 25.0009 47.8099 25.0002H47.812Z" fill="#8A8A8A"/>
</g>
<defs>
<clipPath id="clip0_855_690">
<rect width="50" height="50" fill="white"/>
</clipPath>
</defs>
</svg>
