<svg width="50" height="50" viewBox="0 0 50 50" fill="none" xmlns="http://www.w3.org/2000/svg">
<path d="M39.5833 6.25065H25.9833C25.6611 6.25278 25.3427 6.18153 25.0521 6.04232L18.4771 2.74232C17.6092 2.31012 16.6529 2.08479 15.6833 2.08398H10.4167C7.65501 2.08729 5.00741 3.18582 3.05462 5.13861C1.10184 7.0914 0.00330804 9.73899 0 12.5007L0 37.5006C0.00330804 40.2623 1.10184 42.9099 3.05462 44.8627C5.00741 46.8155 7.65501 47.914 10.4167 47.9173H39.5833C42.345 47.914 44.9926 46.8155 46.9454 44.8627C48.8982 42.9099 49.9967 40.2623 50 37.5006V16.6673C49.9967 13.9057 48.8982 11.2581 46.9454 9.30528C44.9926 7.35249 42.345 6.25396 39.5833 6.25065V6.25065ZM10.4167 6.25065H15.6833C16.0055 6.24852 16.324 6.31977 16.6146 6.45898L23.1896 9.74857C24.0566 10.1844 25.0129 10.4133 25.9833 10.4173H39.5833C40.8292 10.4194 42.0461 10.7937 43.0777 11.4923C44.1093 12.191 44.9086 13.182 45.3729 14.3382L4.16667 14.5715V12.5007C4.16667 10.843 4.82515 9.25334 5.99725 8.08123C7.16935 6.90913 8.75906 6.25065 10.4167 6.25065V6.25065ZM39.5833 43.7506H10.4167C8.75906 43.7506 7.16935 43.0922 5.99725 41.9201C4.82515 40.748 4.16667 39.1583 4.16667 37.5006V18.7382L45.8333 18.5027V37.5006C45.8333 39.1583 45.1749 40.748 44.0027 41.9201C42.8306 43.0922 41.2409 43.7506 39.5833 43.7506Z" fill="#26658C"/>
</svg>
