<svg width="70" height="50" viewBox="0 0 70 50" fill="none" xmlns="http://www.w3.org/2000/svg">
<g clip-path="url(#clip0_977_640)">
<path d="M50 29C51.9778 29 53.9112 28.4135 55.5557 27.3147C57.2002 26.2159 58.4819 24.6541 59.2388 22.8268C59.9957 20.9996 60.1937 18.9889 59.8079 17.0491C59.422 15.1093 58.4696 13.3275 57.0711 11.9289C55.6725 10.5304 53.8907 9.578 51.9509 9.19215C50.0111 8.8063 48.0004 9.00433 46.1732 9.76121C44.3459 10.5181 42.7841 11.7998 41.6853 13.4443C40.5865 15.0888 40 17.0222 40 19C40.0026 21.6514 41.0571 24.1934 42.9319 26.0681C44.8066 27.9429 47.3486 28.9974 50 29ZM50 12.3333C51.3185 12.3333 52.6075 12.7243 53.7038 13.4569C54.8001 14.1894 55.6546 15.2306 56.1592 16.4488C56.6638 17.667 56.7958 19.0074 56.5386 20.3006C56.2813 21.5938 55.6464 22.7817 54.714 23.714C53.7817 24.6464 52.5938 25.2813 51.3006 25.5386C50.0074 25.7958 48.667 25.6638 47.4488 25.1592C46.2306 24.6546 45.1894 23.8001 44.4569 22.7038C43.7243 21.6075 43.3333 20.3185 43.3333 19C43.3333 17.2319 44.0357 15.5362 45.286 14.286C46.5362 13.0357 48.2319 12.3333 50 12.3333V12.3333Z" fill="#8A8A8A"/>
<path d="M50 32.334C46.0231 32.3384 42.2104 33.9202 39.3983 36.7323C36.5862 39.5443 35.0044 43.3571 35 47.334C35 47.776 35.1756 48.1999 35.4882 48.5125C35.8007 48.8251 36.2246 49.0007 36.6667 49.0007C37.1087 49.0007 37.5326 48.8251 37.8452 48.5125C38.1577 48.1999 38.3333 47.776 38.3333 47.334C38.3333 44.2398 39.5625 41.2723 41.7504 39.0844C43.9383 36.8965 46.9058 35.6673 50 35.6673C53.0942 35.6673 56.0617 36.8965 58.2496 39.0844C60.4375 41.2723 61.6667 44.2398 61.6667 47.334C61.6667 47.776 61.8423 48.1999 62.1548 48.5125C62.4674 48.8251 62.8913 49.0007 63.3333 49.0007C63.7754 49.0007 64.1993 48.8251 64.5118 48.5125C64.8244 48.1999 65 47.776 65 47.334C64.9956 43.3571 63.4138 39.5443 60.6017 36.7323C57.7896 33.9202 53.9769 32.3384 50 32.334V32.334Z" fill="#8A8A8A"/>
</g>
<path d="M25 25C31.9036 25 37.5 19.4036 37.5 12.5C37.5 5.59644 31.9036 0 25 0C18.0964 0 12.5 5.59644 12.5 12.5C12.5 19.4036 18.0964 25 25 25Z" fill="#8A8A8A"/>
<path d="M25 29.1641C14.6494 29.1756 6.26152 37.5635 6.25 47.9141C6.25 49.0646 7.18271 49.9974 8.3333 49.9974H41.6666C42.8172 49.9974 43.7499 49.0646 43.7499 47.9141C43.7385 37.5635 35.3506 29.1755 25 29.1641Z" fill="#8A8A8A"/>
<defs>
<clipPath id="clip0_977_640">
<rect width="40" height="40" fill="white" transform="translate(30 9)"/>
</clipPath>
</defs>
</svg>
