<svg width="50" height="50" viewBox="0 0 50 50" fill="none" xmlns="http://www.w3.org/2000/svg">
<g clip-path="url(#clip0_869_534)">
<path d="M50 33.3327V43.7493C50 45.4069 49.3415 46.9967 48.1694 48.1688C46.9973 49.3409 45.4076 49.9993 43.75 49.9993H33.3333C30.4106 49.9963 27.5401 49.2248 25.0097 47.7622C22.4793 46.2995 20.378 44.1972 18.9167 41.666C20.4872 41.6548 22.0524 41.4816 23.5875 41.1493C24.7566 42.6111 26.2396 43.7911 27.9266 44.6018C29.6137 45.4125 31.4616 45.8332 33.3333 45.8327H43.75C44.3025 45.8327 44.8324 45.6132 45.2231 45.2225C45.6138 44.8318 45.8333 44.3019 45.8333 43.7493V33.3327C45.8328 31.4603 45.4109 29.6119 44.5987 27.9248C43.7865 26.2377 42.605 24.7551 41.1417 23.5868C41.4768 22.0521 41.6527 20.4869 41.6667 18.916C44.1978 20.3774 46.3002 22.4786 47.7628 25.009C49.2255 27.5394 49.997 30.41 50 33.3327ZM37.4521 20.1056C37.6469 17.4215 37.2617 14.7269 36.3226 12.205C35.3835 9.68299 33.9125 7.39273 32.0095 5.4898C30.1066 3.58687 27.8164 2.11587 25.2944 1.17675C22.7724 0.237636 20.0778 -0.147587 17.3937 0.047258C12.6373 0.59045 8.2436 2.85387 5.03995 6.41131C1.83631 9.96874 0.0438066 14.5747 0 19.3618L0 29.8618C0 35.1368 3.13958 37.4993 6.25 37.4993H18.125C22.9142 37.4581 27.5229 35.6668 31.0829 32.463C34.6428 29.2591 36.9082 24.864 37.4521 20.1056ZM29.0625 8.43893C30.5415 9.92122 31.6849 11.7039 32.4153 13.6664C33.1456 15.6289 33.4459 17.7253 33.2958 19.8139C32.8512 23.5299 31.0635 26.9552 28.2694 29.4451C25.4753 31.9349 21.8675 33.3175 18.125 33.3327H6.25C4.31667 33.3327 4.16667 30.6764 4.16667 29.8618V19.3618C4.18404 15.621 5.56802 12.0154 8.05816 9.22367C10.5483 6.43195 13.9729 4.64657 17.6875 4.20351C18.0333 4.17851 18.3792 4.16601 18.725 4.16601C20.6443 4.16422 22.5452 4.54067 24.3189 5.27384C26.0927 6.007 27.7046 7.08252 29.0625 8.43893Z" fill="#8A8A8A"/>
</g>
<defs>
<clipPath id="clip0_869_534">
<rect width="50" height="50" fill="white"/>
</clipPath>
</defs>
</svg>
