<svg xmlns="http://www.w3.org/2000/svg" xmlns:xlink="http://www.w3.org/1999/xlink" width="512" zoomAndPan="magnify" viewBox="0 0 384 383.999986" height="512" preserveAspectRatio="xMidYMid meet" version="1.0"><defs><clipPath id="616c61d1cd"><path d="M 16.964844 16.964844 L 367.214844 16.964844 L 367.214844 367.214844 L 16.964844 367.214844 Z M 16.964844 16.964844 " clip-rule="nonzero"/></clipPath></defs><g clip-path="url(#616c61d1cd)"><path fill="#dde0e5" d="M 367.027344 191.996094 C 367.027344 194.859375 366.957031 197.722656 366.816406 200.585938 C 366.675781 203.445312 366.464844 206.300781 366.183594 209.152344 C 365.902344 212.003906 365.554688 214.84375 365.132812 217.679688 C 364.710938 220.511719 364.222656 223.332031 363.664062 226.144531 C 363.105469 228.953125 362.476562 231.746094 361.78125 234.527344 C 361.085938 237.304688 360.324219 240.0625 359.492188 242.804688 C 358.660156 245.546875 357.761719 248.265625 356.796875 250.960938 C 355.832031 253.660156 354.800781 256.332031 353.703125 258.976562 C 352.609375 261.625 351.449219 264.242188 350.222656 266.832031 C 348.996094 269.421875 347.710938 271.980469 346.359375 274.503906 C 345.007812 277.03125 343.597656 279.523438 342.125 281.980469 C 340.652344 284.4375 339.121094 286.855469 337.53125 289.238281 C 335.9375 291.621094 334.289062 293.960938 332.582031 296.261719 C 330.875 298.5625 329.113281 300.820312 327.296875 303.035156 C 325.480469 305.25 323.609375 307.417969 321.6875 309.539062 C 319.761719 311.664062 317.789062 313.738281 315.761719 315.761719 C 313.738281 317.789062 311.664062 319.761719 309.539062 321.6875 C 307.417969 323.609375 305.25 325.480469 303.035156 327.296875 C 300.820312 329.113281 298.5625 330.875 296.261719 332.582031 C 293.960938 334.289062 291.621094 335.9375 289.238281 337.53125 C 286.855469 339.121094 284.4375 340.652344 281.980469 342.125 C 279.523438 343.597656 277.03125 345.007812 274.503906 346.359375 C 271.980469 347.710938 269.421875 348.996094 266.832031 350.222656 C 264.242188 351.449219 261.625 352.609375 258.976562 353.703125 C 256.332031 354.800781 253.660156 355.832031 250.960938 356.796875 C 248.265625 357.761719 245.546875 358.660156 242.804688 359.492188 C 240.0625 360.324219 237.304688 361.085938 234.527344 361.78125 C 231.746094 362.476562 228.953125 363.105469 226.144531 363.664062 C 223.332031 364.222656 220.511719 364.710938 217.679688 365.132812 C 214.84375 365.554688 212.003906 365.902344 209.152344 366.183594 C 206.300781 366.464844 203.445312 366.675781 200.585938 366.816406 C 197.722656 366.957031 194.859375 367.027344 191.996094 367.027344 C 189.132812 367.027344 186.269531 366.957031 183.40625 366.816406 C 180.546875 366.675781 177.691406 366.464844 174.839844 366.183594 C 171.988281 365.902344 169.148438 365.554688 166.3125 365.132812 C 163.480469 364.710938 160.660156 364.222656 157.847656 363.664062 C 155.039062 363.105469 152.246094 362.476562 149.46875 361.78125 C 146.6875 361.085938 143.929688 360.324219 141.1875 359.492188 C 138.445312 358.660156 135.726562 357.761719 133.03125 356.796875 C 130.332031 355.832031 127.660156 354.800781 125.015625 353.703125 C 122.367188 352.609375 119.75 351.449219 117.160156 350.222656 C 114.570312 348.996094 112.011719 347.710938 109.488281 346.359375 C 106.960938 345.007812 104.46875 343.597656 102.011719 342.125 C 99.554688 340.652344 97.136719 339.121094 94.753906 337.53125 C 92.371094 335.9375 90.03125 334.289062 87.730469 332.582031 C 85.429688 330.875 83.171875 329.113281 80.957031 327.296875 C 78.742188 325.480469 76.574219 323.609375 74.453125 321.6875 C 72.328125 319.761719 70.257812 317.789062 68.230469 315.761719 C 66.203125 313.738281 64.230469 311.664062 62.308594 309.539062 C 60.382812 307.417969 58.511719 305.25 56.695312 303.035156 C 54.878906 300.820312 53.117188 298.5625 51.410156 296.261719 C 49.703125 293.960938 48.054688 291.621094 46.464844 289.238281 C 44.871094 286.855469 43.339844 284.4375 41.867188 281.980469 C 40.394531 279.523438 38.984375 277.03125 37.632812 274.503906 C 36.28125 271.980469 34.996094 269.421875 33.769531 266.832031 C 32.546875 264.242188 31.382812 261.625 30.289062 258.976562 C 29.191406 256.332031 28.160156 253.660156 27.195312 250.960938 C 26.230469 248.265625 25.332031 245.546875 24.5 242.804688 C 23.671875 240.0625 22.90625 237.304688 22.210938 234.527344 C 21.515625 231.746094 20.886719 228.953125 20.328125 226.144531 C 19.769531 223.332031 19.28125 220.511719 18.859375 217.679688 C 18.4375 214.84375 18.089844 212.003906 17.808594 209.152344 C 17.527344 206.300781 17.316406 203.445312 17.175781 200.585938 C 17.035156 197.722656 16.964844 194.859375 16.964844 191.996094 C 16.964844 189.132812 17.035156 186.269531 17.175781 183.40625 C 17.316406 180.546875 17.527344 177.691406 17.808594 174.839844 C 18.089844 171.988281 18.4375 169.148438 18.859375 166.3125 C 19.28125 163.480469 19.769531 160.660156 20.328125 157.847656 C 20.886719 155.039062 21.515625 152.246094 22.210938 149.46875 C 22.90625 146.6875 23.671875 143.929688 24.5 141.1875 C 25.332031 138.445312 26.230469 135.726562 27.195312 133.03125 C 28.160156 130.332031 29.191406 127.660156 30.289062 125.015625 C 31.382812 122.367188 32.546875 119.75 33.769531 117.160156 C 34.996094 114.570312 36.28125 112.011719 37.632812 109.488281 C 38.984375 106.960938 40.394531 104.46875 41.867188 102.011719 C 43.339844 99.554688 44.871094 97.136719 46.464844 94.753906 C 48.054688 92.371094 49.703125 90.03125 51.410156 87.730469 C 53.117188 85.429688 54.878906 83.171875 56.695312 80.957031 C 58.511719 78.742188 60.382812 76.574219 62.308594 74.453125 C 64.230469 72.328125 66.203125 70.257812 68.230469 68.230469 C 70.257812 66.203125 72.328125 64.230469 74.453125 62.308594 C 76.574219 60.382812 78.742188 58.511719 80.957031 56.695312 C 83.171875 54.878906 85.429688 53.117188 87.730469 51.410156 C 90.03125 49.703125 92.371094 48.054688 94.753906 46.464844 C 97.136719 44.871094 99.554688 43.339844 102.011719 41.867188 C 104.46875 40.394531 106.960938 38.984375 109.488281 37.632812 C 112.011719 36.28125 114.570312 34.996094 117.160156 33.769531 C 119.75 32.546875 122.367188 31.382812 125.015625 30.289062 C 127.660156 29.191406 130.332031 28.160156 133.03125 27.195312 C 135.726562 26.230469 138.445312 25.332031 141.1875 24.5 C 143.929688 23.671875 146.6875 22.90625 149.46875 22.210938 C 152.246094 21.515625 155.039062 20.886719 157.847656 20.328125 C 160.660156 19.769531 163.480469 19.28125 166.3125 18.859375 C 169.148438 18.4375 171.988281 18.089844 174.839844 17.808594 C 177.691406 17.527344 180.546875 17.316406 183.40625 17.175781 C 186.269531 17.035156 189.132812 16.964844 191.996094 16.964844 C 194.859375 16.964844 197.722656 17.035156 200.585938 17.175781 C 203.445312 17.316406 206.300781 17.527344 209.152344 17.808594 C 212.003906 18.089844 214.84375 18.4375 217.679688 18.859375 C 220.511719 19.28125 223.332031 19.769531 226.144531 20.328125 C 228.953125 20.886719 231.746094 21.515625 234.527344 22.210938 C 237.304688 22.90625 240.0625 23.671875 242.804688 24.5 C 245.546875 25.332031 248.265625 26.230469 250.960938 27.195312 C 253.660156 28.160156 256.332031 29.191406 258.976562 30.289062 C 261.625 31.382812 264.242188 32.546875 266.832031 33.769531 C 269.421875 34.996094 271.980469 36.28125 274.503906 37.632812 C 277.03125 38.984375 279.523438 40.394531 281.980469 41.867188 C 284.4375 43.339844 286.855469 44.871094 289.238281 46.464844 C 291.621094 48.054688 293.960938 49.703125 296.261719 51.410156 C 298.5625 53.117188 300.820312 54.878906 303.035156 56.695312 C 305.25 58.511719 307.417969 60.382812 309.539062 62.308594 C 311.664062 64.230469 313.738281 66.203125 315.761719 68.230469 C 317.789062 70.257812 319.761719 72.328125 321.6875 74.453125 C 323.609375 76.574219 325.480469 78.742188 327.296875 80.957031 C 329.113281 83.171875 330.875 85.429688 332.582031 87.730469 C 334.289062 90.03125 335.9375 92.371094 337.53125 94.753906 C 339.121094 97.136719 340.652344 99.554688 342.125 102.011719 C 343.597656 104.46875 345.007812 106.960938 346.359375 109.488281 C 347.710938 112.011719 348.996094 114.570312 350.222656 117.160156 C 351.449219 119.75 352.609375 122.367188 353.703125 125.015625 C 354.800781 127.660156 355.832031 130.332031 356.796875 133.03125 C 357.761719 135.726562 358.660156 138.445312 359.492188 141.1875 C 360.324219 143.929688 361.085938 146.6875 361.78125 149.46875 C 362.476562 152.246094 363.105469 155.039062 363.664062 157.847656 C 364.222656 160.660156 364.710938 163.480469 365.132812 166.3125 C 365.554688 169.148438 365.902344 171.988281 366.183594 174.839844 C 366.464844 177.691406 366.675781 180.546875 366.816406 183.40625 C 366.957031 186.269531 367.027344 189.132812 367.027344 191.996094 Z M 367.027344 191.996094 " fill-opacity="1" fill-rule="nonzero"/></g><path fill="#555f70" d="M 191.996094 170.613281 C 223.050781 170.613281 248.226562 145.4375 248.226562 114.378906 C 248.226562 83.324219 223.050781 58.148438 191.996094 58.148438 C 160.941406 58.148438 135.765625 83.324219 135.765625 114.378906 C 135.765625 145.4375 160.941406 170.613281 191.996094 170.613281 Z M 191.996094 170.613281 " fill-opacity="1" fill-rule="nonzero"/><path fill="#555f70" d="M 131.957031 314.335938 C 55.511719 283.851562 109.695312 195.957031 191.996094 195.957031 C 274.296875 195.957031 328.480469 283.851562 252.035156 314.335938 C 233.390625 321.769531 213.148438 325.84375 191.996094 325.84375 C 170.84375 325.84375 150.601562 321.769531 131.957031 314.335938 Z M 131.957031 314.335938 " fill-opacity="1" fill-rule="nonzero"/></svg>