<svg xmlns="http://www.w3.org/2000/svg" xmlns:xlink="http://www.w3.org/1999/xlink" width="512" zoomAndPan="magnify" viewBox="0 0 384 383.999986" height="512" preserveAspectRatio="xMidYMid meet" version="1.0"><defs><clipPath id="844f03d59f"><path d="M 79 64 L 287 64 L 287 272 L 79 272 Z M 79 64 " clip-rule="nonzero"/></clipPath><clipPath id="99126eb767"><path d="M 270.976562 57.988281 L 293.433594 80.445312 L 95.707031 278.171875 L 73.25 255.714844 Z M 270.976562 57.988281 " clip-rule="nonzero"/></clipPath><clipPath id="d3493a9412"><path d="M 282.207031 69.21875 C 288.40625 75.417969 288.40625 85.472656 282.207031 91.675781 L 106.953125 266.925781 C 100.753906 273.128906 90.699219 273.128906 84.496094 266.925781 C 78.296875 260.726562 78.296875 250.671875 84.496094 244.46875 L 259.75 69.21875 C 265.949219 63.015625 276.003906 63.015625 282.207031 69.21875 Z M 282.207031 69.21875 " clip-rule="nonzero"/></clipPath><clipPath id="646c40a4fc"><path d="M 0 0 L 208 0 L 208 208 L 0 208 Z M 0 0 " clip-rule="nonzero"/></clipPath><clipPath id="a9701d7780"><path d="M 191.976562 -6.011719 L 214.433594 16.445312 L 16.707031 214.171875 L -5.75 191.714844 Z M 191.976562 -6.011719 " clip-rule="nonzero"/></clipPath><clipPath id="7f3b5b08ea"><path d="M 203.207031 5.21875 C 209.40625 11.417969 209.40625 21.472656 203.207031 27.675781 L 27.953125 202.925781 C 21.753906 209.128906 11.699219 209.128906 5.496094 202.925781 C -0.703125 196.726562 -0.703125 186.671875 5.496094 180.46875 L 180.75 5.21875 C 186.949219 -0.984375 197.003906 -0.984375 203.207031 5.21875 Z M 203.207031 5.21875 " clip-rule="nonzero"/></clipPath><clipPath id="7cb7b2ddd7"><rect x="0" width="208" y="0" height="208"/></clipPath><clipPath id="34d3bd6341"><path d="M 3 174 L 111 174 L 111 273 L 3 273 Z M 3 174 " clip-rule="nonzero"/></clipPath><clipPath id="14fd069d01"><path d="M -2.542969 191.898438 L 18.457031 168.070312 L 117.300781 255.179688 L 96.300781 279.007812 Z M -2.542969 191.898438 " clip-rule="nonzero"/></clipPath><clipPath id="85e9abf937"><path d="M 7.957031 179.984375 C 13.753906 173.40625 23.789062 172.769531 30.367188 178.570312 L 105.34375 244.640625 C 111.921875 250.441406 112.554688 260.472656 106.757812 267.054688 C 100.957031 273.632812 90.921875 274.265625 84.34375 268.46875 L 9.371094 202.394531 C 2.789062 196.597656 2.15625 186.5625 7.957031 179.984375 Z M 7.957031 179.984375 " clip-rule="nonzero"/></clipPath><clipPath id="046d5ef07b"><path d="M 0 0 L 108 0 L 108 99 L 0 99 Z M 0 0 " clip-rule="nonzero"/></clipPath><clipPath id="0eb5ab4473"><path d="M -5.542969 17.898438 L 15.457031 -5.929688 L 114.300781 81.179688 L 93.300781 105.007812 Z M -5.542969 17.898438 " clip-rule="nonzero"/></clipPath><clipPath id="c2ca2783c1"><path d="M 4.957031 5.984375 C 10.753906 -0.59375 20.789062 -1.230469 27.367188 4.570312 L 102.34375 70.640625 C 108.921875 76.441406 109.554688 86.472656 103.757812 93.054688 C 97.957031 99.632812 87.921875 100.265625 81.34375 94.46875 L 6.371094 28.394531 C -0.210938 22.597656 -0.84375 12.5625 4.957031 5.984375 Z M 4.957031 5.984375 " clip-rule="nonzero"/></clipPath><clipPath id="78676123f3"><rect x="0" width="108" y="0" height="99"/></clipPath><clipPath id="72f3a117b1"><path d="M 170 64 L 378 64 L 378 272 L 170 272 Z M 170 64 " clip-rule="nonzero"/></clipPath><clipPath id="8e4bece996"><path d="M 361.539062 57.988281 L 383.996094 80.445312 L 186.269531 278.171875 L 163.8125 255.714844 Z M 361.539062 57.988281 " clip-rule="nonzero"/></clipPath><clipPath id="7682c10a8b"><path d="M 372.769531 69.21875 C 378.96875 75.417969 378.96875 85.472656 372.769531 91.675781 L 197.515625 266.925781 C 191.316406 273.128906 181.261719 273.128906 175.058594 266.925781 C 168.859375 260.726562 168.859375 250.671875 175.058594 244.46875 L 350.3125 69.21875 C 356.511719 63.015625 366.566406 63.015625 372.769531 69.21875 Z M 372.769531 69.21875 " clip-rule="nonzero"/></clipPath><clipPath id="163bfea7a9"><path d="M 0 0 L 208 0 L 208 208 L 0 208 Z M 0 0 " clip-rule="nonzero"/></clipPath><clipPath id="67096326a1"><path d="M 191.539062 -6.011719 L 213.996094 16.445312 L 16.269531 214.171875 L -6.1875 191.714844 Z M 191.539062 -6.011719 " clip-rule="nonzero"/></clipPath><clipPath id="dda86b1c43"><path d="M 202.769531 5.21875 C 208.96875 11.417969 208.96875 21.472656 202.769531 27.675781 L 27.515625 202.925781 C 21.316406 209.128906 11.261719 209.128906 5.058594 202.925781 C -1.140625 196.726562 -1.140625 186.671875 5.058594 180.46875 L 180.3125 5.21875 C 186.511719 -0.984375 196.566406 -0.984375 202.769531 5.21875 Z M 202.769531 5.21875 " clip-rule="nonzero"/></clipPath><clipPath id="d3907b115d"><rect x="0" width="208" y="0" height="208"/></clipPath><clipPath id="d74b3e8dcd"><path d="M 151 224 L 202 224 L 202 273 L 151 273 Z M 151 224 " clip-rule="nonzero"/></clipPath><clipPath id="93b11f46a1"><path d="M 144.597656 241.757812 L 165.59375 217.929688 L 207.851562 255.167969 L 186.851562 278.996094 Z M 144.597656 241.757812 " clip-rule="nonzero"/></clipPath><clipPath id="b74dd43613"><path d="M 155.097656 229.84375 C 160.894531 223.265625 170.929688 222.632812 177.507812 228.429688 L 195.902344 244.640625 C 202.484375 250.441406 203.117188 260.472656 197.320312 267.054688 C 191.519531 273.632812 181.484375 274.265625 174.90625 268.46875 L 156.511719 252.257812 C 149.929688 246.457031 149.296875 236.425781 155.097656 229.84375 Z M 155.097656 229.84375 " clip-rule="nonzero"/></clipPath><clipPath id="41bd21160d"><path d="M 0 0 L 51 0 L 51 49 L 0 49 Z M 0 0 " clip-rule="nonzero"/></clipPath><clipPath id="27146cbbb9"><path d="M -6.402344 17.757812 L 14.59375 -6.070312 L 56.851562 31.167969 L 35.851562 54.996094 Z M -6.402344 17.757812 " clip-rule="nonzero"/></clipPath><clipPath id="3ae1752f2a"><path d="M 4.097656 5.84375 C 9.894531 -0.734375 19.929688 -1.367188 26.507812 4.429688 L 44.902344 20.640625 C 51.484375 26.441406 52.117188 36.472656 46.320312 43.054688 C 40.519531 49.632812 30.484375 50.265625 23.90625 44.46875 L 5.511719 28.257812 C -1.070312 22.457031 -1.703125 12.425781 4.097656 5.84375 Z M 4.097656 5.84375 " clip-rule="nonzero"/></clipPath><clipPath id="8fbc0e0782"><rect x="0" width="51" y="0" height="49"/></clipPath></defs><g clip-path="url(#844f03d59f)"><g clip-path="url(#99126eb767)"><g clip-path="url(#d3493a9412)"><g transform="matrix(1, 0, 0, 1, 79, 64)"><g clip-path="url(#7cb7b2ddd7)"><g clip-path="url(#646c40a4fc)"><g clip-path="url(#a9701d7780)"><g clip-path="url(#7f3b5b08ea)"><path fill="#38b6ff" d="M 191.976562 -6.011719 L 214.433594 16.445312 L 16.707031 214.171875 L -5.75 191.714844 Z M 191.976562 -6.011719 " fill-opacity="1" fill-rule="nonzero"/></g></g></g></g></g></g></g></g><g clip-path="url(#34d3bd6341)"><g clip-path="url(#14fd069d01)"><g clip-path="url(#85e9abf937)"><g transform="matrix(1, 0, 0, 1, 3, 174)"><g clip-path="url(#78676123f3)"><g clip-path="url(#046d5ef07b)"><g clip-path="url(#0eb5ab4473)"><g clip-path="url(#c2ca2783c1)"><path fill="#38b6ff" d="M -5.542969 17.898438 L 15.457031 -5.929688 L 114.300781 81.179688 L 93.300781 105.007812 Z M -5.542969 17.898438 " fill-opacity="1" fill-rule="nonzero"/></g></g></g></g></g></g></g></g><g clip-path="url(#72f3a117b1)"><g clip-path="url(#8e4bece996)"><g clip-path="url(#7682c10a8b)"><g transform="matrix(1, 0, 0, 1, 170, 64)"><g clip-path="url(#d3907b115d)"><g clip-path="url(#163bfea7a9)"><g clip-path="url(#67096326a1)"><g clip-path="url(#dda86b1c43)"><path fill="#38b6ff" d="M 191.539062 -6.011719 L 213.996094 16.445312 L 16.269531 214.171875 L -6.1875 191.714844 Z M 191.539062 -6.011719 " fill-opacity="1" fill-rule="nonzero"/></g></g></g></g></g></g></g></g><g clip-path="url(#d74b3e8dcd)"><g clip-path="url(#93b11f46a1)"><g clip-path="url(#b74dd43613)"><g transform="matrix(1, 0, 0, 1, 151, 224)"><g clip-path="url(#8fbc0e0782)"><g clip-path="url(#41bd21160d)"><g clip-path="url(#27146cbbb9)"><g clip-path="url(#3ae1752f2a)"><path fill="#38b6ff" d="M -6.402344 17.757812 L 14.59375 -6.070312 L 56.851562 31.167969 L 35.851562 54.996094 Z M -6.402344 17.757812 " fill-opacity="1" fill-rule="nonzero"/></g></g></g></g></g></g></g></g></svg>