<svg xmlns="http://www.w3.org/2000/svg" xmlns:xlink="http://www.w3.org/1999/xlink" width="512" zoomAndPan="magnify" viewBox="0 0 384 383.999986" height="512" preserveAspectRatio="xMidYMid meet" version="1.0"><defs><clipPath id="af63f1a317"><path d="M 66 66 L 276 66 L 276 276 L 66 276 Z M 66 66 " clip-rule="nonzero"/></clipPath><clipPath id="8f629cda76"><path d="M 255.589844 57.992188 L 283.648438 86.050781 L 85.902344 283.800781 L 57.839844 255.738281 Z M 255.589844 57.992188 " clip-rule="nonzero"/></clipPath><clipPath id="aacd267047"><path d="M 269.621094 72.019531 C 277.367188 79.769531 277.367188 92.335938 269.621094 100.082031 L 99.972656 269.730469 C 92.222656 277.480469 79.660156 277.480469 71.910156 269.730469 C 64.160156 261.980469 64.160156 249.417969 71.910156 241.667969 L 241.558594 72.019531 C 249.304688 64.273438 261.871094 64.273438 269.621094 72.019531 Z M 269.621094 72.019531 " clip-rule="nonzero"/></clipPath><clipPath id="a56f6da3da"><path d="M 0 0 L 210 0 L 210 210 L 0 210 Z M 0 0 " clip-rule="nonzero"/></clipPath><clipPath id="1a9077945d"><path d="M 189.589844 -8.007812 L 217.648438 20.050781 L 19.902344 217.800781 L -8.160156 189.738281 Z M 189.589844 -8.007812 " clip-rule="nonzero"/></clipPath><clipPath id="0e5ea1129c"><path d="M 203.621094 6.019531 C 211.367188 13.769531 211.367188 26.335938 203.621094 34.082031 L 33.972656 203.730469 C 26.222656 211.480469 13.660156 211.480469 5.910156 203.730469 C -1.839844 195.980469 -1.839844 183.417969 5.910156 175.667969 L 175.558594 6.019531 C 183.304688 -1.726562 195.871094 -1.726562 203.621094 6.019531 Z M 203.621094 6.019531 " clip-rule="nonzero"/></clipPath><clipPath id="e51db71c69"><rect x="0" width="210" y="0" height="210"/></clipPath><clipPath id="620e5b0ea3"><path d="M 8 179 L 105 179 L 105 276 L 8 276 Z M 8 179 " clip-rule="nonzero"/></clipPath><clipPath id="197449589e"><path d="M 0 199.035156 L 28.0625 170.972656 L 112.796875 255.707031 L 84.734375 283.769531 Z M 0 199.035156 " clip-rule="nonzero"/></clipPath><clipPath id="e41d1e0f93"><path d="M 14.03125 185.003906 C 21.78125 177.253906 34.34375 177.253906 42.09375 185.003906 L 98.757812 241.664062 C 106.503906 249.414062 106.503906 261.976562 98.757812 269.726562 C 91.007812 277.476562 78.445312 277.476562 70.695312 269.726562 L 14.03125 213.066406 C 6.28125 205.316406 6.28125 192.75 14.03125 185.003906 Z M 14.03125 185.003906 " clip-rule="nonzero"/></clipPath><clipPath id="b27a95e724"><path d="M 0 0 L 97 0 L 97 97 L 0 97 Z M 0 0 " clip-rule="nonzero"/></clipPath><clipPath id="4c8c5381cc"><path d="M -8 20.035156 L 20.0625 -8.027344 L 104.796875 76.707031 L 76.734375 104.769531 Z M -8 20.035156 " clip-rule="nonzero"/></clipPath><clipPath id="e012f9de4d"><path d="M 6.03125 6.003906 C 13.78125 -1.746094 26.34375 -1.746094 34.09375 6.003906 L 90.757812 62.664062 C 98.503906 70.414062 98.503906 82.976562 90.757812 90.726562 C 83.007812 98.476562 70.445312 98.476562 62.695312 90.726562 L 6.03125 34.066406 C -1.71875 26.316406 -1.71875 13.75 6.03125 6.003906 Z M 6.03125 6.003906 " clip-rule="nonzero"/></clipPath><clipPath id="f1cdf83750"><rect x="0" width="97" y="0" height="97"/></clipPath><clipPath id="6af0dbbfa1"><path d="M 165 66 L 376 66 L 376 276 L 165 276 Z M 165 66 " clip-rule="nonzero"/></clipPath><clipPath id="c916950cf4"><path d="M 355.292969 58.089844 L 383.355469 86.152344 L 185.605469 283.902344 L 157.542969 255.839844 Z M 355.292969 58.089844 " clip-rule="nonzero"/></clipPath><clipPath id="caf5201474"><path d="M 369.324219 72.121094 C 377.074219 79.871094 377.074219 92.433594 369.324219 100.183594 L 199.675781 269.832031 C 191.925781 277.578125 179.363281 277.578125 171.613281 269.832031 C 163.863281 262.082031 163.863281 249.519531 171.613281 241.769531 L 341.261719 72.121094 C 349.011719 64.371094 361.574219 64.371094 369.324219 72.121094 Z M 369.324219 72.121094 " clip-rule="nonzero"/></clipPath><clipPath id="0b6600b4fc"><path d="M 0 0 L 211 0 L 211 210 L 0 210 Z M 0 0 " clip-rule="nonzero"/></clipPath><clipPath id="59eb067899"><path d="M 190.292969 -7.910156 L 218.355469 20.152344 L 20.605469 217.902344 L -7.457031 189.839844 Z M 190.292969 -7.910156 " clip-rule="nonzero"/></clipPath><clipPath id="4616dd5e4c"><path d="M 204.324219 6.121094 C 212.074219 13.871094 212.074219 26.433594 204.324219 34.183594 L 34.675781 203.832031 C 26.925781 211.578125 14.363281 211.578125 6.613281 203.832031 C -1.136719 196.082031 -1.136719 183.519531 6.613281 175.769531 L 176.261719 6.121094 C 184.011719 -1.628906 196.574219 -1.628906 204.324219 6.121094 Z M 204.324219 6.121094 " clip-rule="nonzero"/></clipPath><clipPath id="2a7d0206ab"><rect x="0" width="211" y="0" height="210"/></clipPath><clipPath id="2d7ce135e0"><path d="M 147 219 L 205 219 L 205 276 L 147 276 Z M 147 219 " clip-rule="nonzero"/></clipPath><clipPath id="a835b0e313"><path d="M 139.699219 239.128906 L 167.757812 211.066406 L 212.59375 255.898438 L 184.53125 283.960938 Z M 139.699219 239.128906 " clip-rule="nonzero"/></clipPath><clipPath id="250b87578d"><path d="M 153.726562 225.097656 C 161.476562 217.347656 174.042969 217.347656 181.789062 225.097656 L 198.460938 241.765625 C 206.207031 249.515625 206.207031 262.078125 198.460938 269.828125 C 190.710938 277.574219 178.148438 277.574219 170.398438 269.828125 L 153.726562 253.15625 C 145.980469 245.410156 145.980469 232.84375 153.726562 225.097656 Z M 153.726562 225.097656 " clip-rule="nonzero"/></clipPath><clipPath id="a1eb5d4888"><path d="M 0 0 L 58 0 L 58 57 L 0 57 Z M 0 0 " clip-rule="nonzero"/></clipPath><clipPath id="1ebbcdebd3"><path d="M -7.300781 20.128906 L 20.757812 -7.933594 L 65.59375 36.898438 L 37.53125 64.960938 Z M -7.300781 20.128906 " clip-rule="nonzero"/></clipPath><clipPath id="9113816906"><path d="M 6.726562 6.097656 C 14.476562 -1.652344 27.042969 -1.652344 34.789062 6.097656 L 51.460938 22.765625 C 59.207031 30.515625 59.207031 43.078125 51.460938 50.828125 C 43.710938 58.574219 31.148438 58.574219 23.398438 50.828125 L 6.726562 34.15625 C -1.019531 26.410156 -1.019531 13.84375 6.726562 6.097656 Z M 6.726562 6.097656 " clip-rule="nonzero"/></clipPath><clipPath id="d9770d80b1"><rect x="0" width="58" y="0" height="57"/></clipPath></defs><g clip-path="url(#af63f1a317)"><g clip-path="url(#8f629cda76)"><g clip-path="url(#aacd267047)"><g transform="matrix(1, 0, 0, 1, 66, 66)"><g clip-path="url(#e51db71c69)"><g clip-path="url(#a56f6da3da)"><g clip-path="url(#1a9077945d)"><g clip-path="url(#0e5ea1129c)"><path fill="#38b6ff" d="M 189.589844 -8.007812 L 217.648438 20.050781 L 19.902344 217.800781 L -8.160156 189.738281 Z M 189.589844 -8.007812 " fill-opacity="1" fill-rule="nonzero"/></g></g></g></g></g></g></g></g><g clip-path="url(#620e5b0ea3)"><g clip-path="url(#197449589e)"><g clip-path="url(#e41d1e0f93)"><g transform="matrix(1, 0, 0, 1, 8, 179)"><g clip-path="url(#f1cdf83750)"><g clip-path="url(#b27a95e724)"><g clip-path="url(#4c8c5381cc)"><g clip-path="url(#e012f9de4d)"><path fill="#38b6ff" d="M -8 20.035156 L 20.0625 -8.027344 L 104.796875 76.707031 L 76.734375 104.769531 Z M -8 20.035156 " fill-opacity="1" fill-rule="nonzero"/></g></g></g></g></g></g></g></g><g clip-path="url(#6af0dbbfa1)"><g clip-path="url(#c916950cf4)"><g clip-path="url(#caf5201474)"><g transform="matrix(1, 0, 0, 1, 165, 66)"><g clip-path="url(#2a7d0206ab)"><g clip-path="url(#0b6600b4fc)"><g clip-path="url(#59eb067899)"><g clip-path="url(#4616dd5e4c)"><path fill="#38b6ff" d="M 190.292969 -7.910156 L 218.355469 20.152344 L 20.605469 217.902344 L -7.457031 189.839844 Z M 190.292969 -7.910156 " fill-opacity="1" fill-rule="nonzero"/></g></g></g></g></g></g></g></g><g clip-path="url(#2d7ce135e0)"><g clip-path="url(#a835b0e313)"><g clip-path="url(#250b87578d)"><g transform="matrix(1, 0, 0, 1, 147, 219)"><g clip-path="url(#d9770d80b1)"><g clip-path="url(#a1eb5d4888)"><g clip-path="url(#1ebbcdebd3)"><g clip-path="url(#9113816906)"><path fill="#38b6ff" d="M -7.300781 20.128906 L 20.757812 -7.933594 L 65.484375 36.789062 L 37.421875 64.851562 Z M -7.300781 20.128906 " fill-opacity="1" fill-rule="nonzero"/></g></g></g></g></g></g></g></g></svg>