<svg width="51" height="49" viewBox="0 0 51 49" fill="none" xmlns="http://www.w3.org/2000/svg">
<path fill-rule="evenodd" clip-rule="evenodd" d="M16.232 15.4857C18.69 13.1406 22.0238 11.8232 25.5 11.8232C28.9762 11.8232 32.31 13.1406 34.768 15.4857C37.2261 17.8307 38.607 21.0112 38.607 24.3276C38.607 27.6439 37.2261 30.8245 34.768 33.1695C32.31 35.5145 28.9762 36.832 25.5 36.832C22.0238 36.832 18.69 35.5145 16.232 33.1695C13.7739 30.8245 12.393 27.6439 12.393 24.3276C12.393 21.0112 13.7739 17.8307 16.232 15.4857ZM22.2439 31.827C23.2762 32.2349 24.3826 32.4449 25.5 32.4449C27.7566 32.4449 29.9208 31.5897 31.5164 30.0674C33.1121 28.5451 34.0085 26.4804 34.0085 24.3276C34.0085 22.1747 33.1121 20.1101 31.5164 18.5878C29.9208 17.0655 27.7566 16.2103 25.5 16.2103C24.3826 16.2103 23.2762 16.4202 22.2439 16.8282C21.2116 17.2361 20.2737 17.834 19.4836 18.5878C18.6935 19.3415 18.0668 20.2364 17.6392 21.2212C17.2116 22.2061 16.9915 23.2616 16.9915 24.3276C16.9915 25.3936 17.2116 26.4491 17.6392 27.4339C18.0668 28.4188 18.6935 29.3136 19.4836 30.0674C20.2737 30.8211 21.2116 31.4191 22.2439 31.827Z" fill="white"/>
<path d="M41.5126 13.6862C42.0937 13.1319 42.4201 12.3801 42.4201 11.5962C42.4201 10.8122 42.0937 10.0604 41.5126 9.50609C40.9316 8.95177 40.1436 8.64035 39.3218 8.64035C38.5001 8.64035 37.7121 8.95177 37.131 9.50609C36.55 10.0604 36.2236 10.8122 36.2236 11.5962C36.2236 12.3801 36.55 13.1319 37.131 13.6862C37.7121 14.2405 38.5001 14.552 39.3218 14.552C40.1436 14.552 40.9316 14.2405 41.5126 13.6862Z" fill="white"/>
<path fill-rule="evenodd" clip-rule="evenodd" d="M14.9872 0.145965C17.7072 0.0275713 18.5742 0 25.5 0C32.4275 0 33.2928 0.0291928 36.0111 0.145965C38.726 0.26436 40.5824 0.677929 42.2042 1.27639C43.9051 1.88759 45.4459 2.84506 46.7194 4.08217C48.0165 5.29744 49.0202 6.76804 49.6604 8.39139C50.2911 9.93863 50.7229 11.7081 50.847 14.2981C50.9711 16.8931 51 17.7202 51 24.3276C51 30.9349 50.9711 31.7621 50.847 34.357C50.7229 36.9471 50.2911 38.7165 49.6621 40.2638C49.0214 41.8864 48.0178 43.3564 46.7211 44.5714C45.4461 45.8105 43.9042 46.7673 42.2042 47.3771C40.5824 47.9788 38.7277 48.3908 36.0128 48.5092C33.2928 48.6276 32.4258 48.6552 25.5 48.6552C18.5742 48.6552 17.7072 48.6276 14.9872 48.5092C12.2723 48.3908 10.4176 47.9788 8.7958 47.3788C7.09497 46.7675 5.55416 45.81 4.2806 44.573C2.9818 43.3566 1.9788 41.8856 1.3396 40.2638C0.7089 38.7165 0.2771 36.9471 0.153 34.357C0.0289001 31.7621 0 30.9366 0 24.3276C0 17.7186 0.0305997 16.8931 0.153 14.2997C0.2771 11.7097 0.7106 9.93863 1.3379 8.39139C1.97856 6.76873 2.98218 5.29876 4.2789 4.08379C5.5539 2.8447 7.0958 1.88782 8.7958 1.27801C10.4176 0.676307 12.2723 0.26436 14.9872 0.145965ZM35.8054 4.52493C33.116 4.40816 32.3085 4.38383 25.5 4.38383C18.6915 4.38383 17.884 4.40816 15.1946 4.52493C12.7092 4.63359 11.3594 5.02932 10.4601 5.36342C9.3524 5.75262 8.3503 6.3739 7.5276 7.1815C6.6368 8.03296 6.0826 8.84388 5.6219 9.97917C5.27 10.8371 4.8569 12.1249 4.743 14.496C4.6206 17.0617 4.5951 17.8321 4.5951 24.3276C4.5951 30.823 4.6206 31.5934 4.743 34.1592C4.8569 36.5303 5.2717 37.818 5.6219 38.676C6.03012 39.7326 6.6813 40.6886 7.5276 41.4737C8.35041 42.2811 9.35247 42.9024 10.4601 43.2917C11.3594 43.6275 12.7092 44.0216 15.1946 44.1302C17.884 44.247 18.6898 44.2713 25.5 44.2713C32.3102 44.2713 33.116 44.247 35.8054 44.1302C38.2908 44.0216 39.6406 43.6258 40.5399 43.2917C41.6476 42.9026 42.6497 42.2813 43.4724 41.4737C44.3188 40.6887 44.97 39.7327 45.3781 38.676C45.73 37.818 46.1431 36.5303 46.257 34.1592C46.3794 31.5934 46.4049 30.823 46.4049 24.3276C46.4049 17.8321 46.3794 17.0617 46.257 14.496C46.1431 12.1249 45.7283 10.8371 45.3781 9.97917C44.9174 8.84388 44.3649 8.03296 43.4724 7.1815C42.5799 6.33166 41.7299 5.80294 40.5399 5.36342C39.6406 5.0277 38.2908 4.63359 35.8054 4.52493Z" fill="white"/>
</svg>
