<svg width="51" height="49" viewBox="0 0 51 49" fill="none" xmlns="http://www.w3.org/2000/svg">
<path d="M44.625 8.76522V39.8902C44.625 40.6018 44.3287 41.2843 43.8012 41.7875C43.2738 42.2907 42.5584 42.5734 41.8125 42.5734H9.1875C8.44158 42.5734 7.72621 42.2907 7.19876 41.7875C6.67132 41.2843 6.375 40.6018 6.375 39.8902V8.76522C6.375 8.05359 6.67132 7.37111 7.19876 6.86792C7.72621 6.36472 8.44158 6.08203 9.1875 6.08203H41.8125C42.5584 6.08203 43.2738 6.36472 43.8012 6.86792C44.3287 7.37111 44.625 8.05359 44.625 8.76522ZM17.625 20.0346H12V37.207H17.625V20.0346ZM18.1312 14.1316C18.1342 13.7257 18.0533 13.3232 17.8933 12.9471C17.7332 12.571 17.497 12.2286 17.1982 11.9396C16.8994 11.6506 16.5439 11.4205 16.1519 11.2626C15.76 11.1046 15.3392 11.0219 14.9137 11.0191H14.8125C13.9472 11.0191 13.1174 11.347 12.5056 11.9307C11.8937 12.5144 11.55 13.3061 11.55 14.1316C11.55 14.9571 11.8937 15.7488 12.5056 16.3325C13.1174 16.9162 13.9472 17.2441 14.8125 17.2441C15.238 17.2541 15.6614 17.184 16.0585 17.0378C16.4556 16.8916 16.8187 16.6722 17.1269 16.3922C17.4351 16.1121 17.6824 15.7768 17.8547 15.4055C18.0271 15.0342 18.121 14.6341 18.1312 14.2282V14.1316ZM39 26.7748C39 21.6123 35.5575 19.6053 32.1375 19.6053C31.0177 19.5518 29.9028 19.7793 28.904 20.2652C27.9051 20.7511 27.0573 21.4783 26.445 22.3744H26.2875V20.0346H21V37.207H26.625V28.0734C26.5437 27.138 26.8525 26.2098 27.4845 25.4903C28.1164 24.7709 29.0204 24.3184 30 24.2311H30.2138C32.0025 24.2311 33.33 25.3044 33.33 28.009V37.207H38.955L39 26.7748Z" fill="white"/>
</svg>
