<svg xmlns="http://www.w3.org/2000/svg" xmlns:xlink="http://www.w3.org/1999/xlink" width="512" zoomAndPan="magnify" viewBox="0 0 384 383.999986" height="512" preserveAspectRatio="xMidYMid meet" version="1.0"><defs><clipPath id="415fb9a9c5"><path d="M 115.199219 115.199219 L 268.949219 115.199219 L 268.949219 268.949219 L 115.199219 268.949219 Z M 115.199219 115.199219 " clip-rule="nonzero"/></clipPath></defs><g clip-path="url(#415fb9a9c5)"><path fill="#ffffff" d="M 210.179688 173.519531 C 209.613281 173.835938 209.039062 174.140625 208.484375 174.472656 C 199.601562 179.796875 190.695312 185.078125 181.859375 190.476562 C 178.871094 192.304688 175.851562 192.757812 172.492188 191.863281 C 154.839844 187.175781 137.183594 182.515625 119.515625 177.878906 C 116.820312 177.164062 115.394531 175.558594 115.308594 173.210938 C 115.21875 170.863281 116.519531 169.136719 119.105469 168.191406 C 160.835938 152.898438 202.570312 137.605469 244.300781 122.3125 C 250.019531 120.21875 255.746094 118.15625 261.441406 116 C 263.5625 115.199219 265.484375 115.25 267.121094 116.886719 C 268.757812 118.527344 268.777344 120.449219 267.996094 122.570312 C 254.828125 158.421875 241.679688 194.277344 228.550781 230.140625 C 224.300781 241.730469 220.054688 253.320312 215.808594 264.910156 C 214.867188 267.488281 213.125 268.792969 210.78125 268.695312 C 208.4375 268.597656 206.824219 267.171875 206.109375 264.476562 C 201.464844 246.875 196.816406 229.269531 192.167969 211.664062 C 191.222656 208.117188 191.722656 204.992188 193.664062 201.84375 C 199.015625 193.175781 204.195312 184.398438 209.441406 175.664062 C 209.800781 175.0625 210.140625 174.441406 210.492188 173.832031 Z M 210.179688 173.519531 " fill-opacity="1" fill-rule="nonzero"/></g></svg>