<svg width="48" height="34" viewBox="0 0 48 34" fill="none" xmlns="http://www.w3.org/2000/svg">
<path fill-rule="evenodd" clip-rule="evenodd" d="M42.7009 1.00906C44.7651 1.55945 46.3979 3.18008 46.9525 5.22876C47.9692 8.95923 48 16.6954 48 16.6954C48 16.6954 48 24.4621 46.9833 28.162C46.4288 30.2107 44.7959 31.8313 42.7317 32.3817C39.0039 33.3907 24 33.3907 24 33.3907C24 33.3907 8.99615 33.3907 5.26829 32.3817C3.20411 31.8313 1.57125 30.2107 1.01669 28.162C0 24.4315 0 16.6954 0 16.6954C0 16.6954 0 8.95923 0.985878 5.25935C1.54044 3.21065 3.1733 1.59004 5.23748 1.03965C8.96534 0.0305701 23.9692 0 23.9692 0C23.9692 0 38.973 0 42.7009 1.00906ZM31.6406 16.6954L19.1938 23.8505V9.54022L31.6406 16.6954Z" fill="white"/>
</svg>
