<svg xmlns="http://www.w3.org/2000/svg" xmlns:xlink="http://www.w3.org/1999/xlink" width="512" zoomAndPan="magnify" viewBox="0 0 384 383.999986" height="512" preserveAspectRatio="xMidYMid meet" version="1.0"><defs><g/><clipPath id="b5e196ed20"><rect x="0" width="300" y="0" height="384"/></clipPath><clipPath id="486d22f06c"><rect x="0" width="100" y="0" height="278"/></clipPath></defs><g transform="matrix(1, 0, 0, 1, 42, 0)"><g clip-path="url(#b5e196ed20)"><g fill="#26658c" fill-opacity="1"><g transform="translate(1.06719, 351.203073)"><g><path d="M 148.890625 2.703125 C 124.597656 2.703125 102.929688 -3.742188 83.890625 -16.640625 C 64.847656 -29.535156 50.003906 -48.050781 39.359375 -72.1875 C 28.710938 -96.332031 23.390625 -124.75 23.390625 -157.4375 C 23.390625 -190.132812 28.710938 -218.550781 39.359375 -242.6875 C 50.003906 -266.832031 64.847656 -285.351562 83.890625 -298.25 C 102.929688 -311.144531 124.597656 -317.59375 148.890625 -317.59375 C 173.179688 -317.59375 194.847656 -311.144531 213.890625 -298.25 C 232.941406 -285.351562 247.863281 -266.832031 258.65625 -242.6875 C 269.457031 -218.550781 274.859375 -190.132812 274.859375 -157.4375 C 274.859375 -124.75 269.457031 -96.332031 258.65625 -72.1875 C 247.863281 -48.050781 232.941406 -29.535156 213.890625 -16.640625 C 194.847656 -3.742188 173.179688 2.703125 148.890625 2.703125 Z M 148.890625 -26.984375 C 167.191406 -26.984375 183.3125 -32.082031 197.25 -42.28125 C 211.195312 -52.476562 222.066406 -67.320312 229.859375 -86.8125 C 237.660156 -106.3125 241.5625 -129.851562 241.5625 -157.4375 C 241.5625 -185.03125 237.660156 -208.570312 229.859375 -228.0625 C 222.066406 -247.5625 211.195312 -262.410156 197.25 -272.609375 C 183.3125 -282.804688 167.191406 -287.90625 148.890625 -287.90625 C 130.597656 -287.90625 114.476562 -282.804688 100.53125 -272.609375 C 86.59375 -262.410156 75.722656 -247.5625 67.921875 -228.0625 C 60.128906 -208.570312 56.234375 -185.03125 56.234375 -157.4375 C 56.234375 -129.851562 60.128906 -106.3125 67.921875 -86.8125 C 75.722656 -67.320312 86.59375 -52.476562 100.53125 -42.28125 C 114.476562 -32.082031 130.597656 -26.984375 148.890625 -26.984375 Z M 148.890625 -26.984375 "/></g></g></g></g></g><g transform="matrix(1, 0, 0, 1, 280, 0)"><g clip-path="url(#486d22f06c)"><g fill="#26658c" fill-opacity="1"><g transform="translate(3.24678, 187.89851)"><g><path d="M 46.765625 -105.109375 C 39.554688 -105.109375 33.144531 -106.785156 27.53125 -110.140625 C 21.914062 -113.492188 17.472656 -117.9375 14.203125 -123.46875 C 10.929688 -129 9.296875 -135.285156 9.296875 -142.328125 C 9.296875 -149.367188 10.929688 -155.695312 14.203125 -161.3125 C 17.472656 -166.925781 21.914062 -171.367188 27.53125 -174.640625 C 33.144531 -177.910156 39.554688 -179.546875 46.765625 -179.546875 C 53.804688 -179.546875 60.09375 -177.953125 65.625 -174.765625 C 71.164062 -171.585938 75.566406 -167.1875 78.828125 -161.5625 C 82.097656 -155.945312 83.734375 -149.535156 83.734375 -142.328125 C 83.734375 -135.285156 82.097656 -128.957031 78.828125 -123.34375 C 75.566406 -117.726562 71.164062 -113.285156 65.625 -110.015625 C 60.09375 -106.742188 53.804688 -105.109375 46.765625 -105.109375 Z M 46.765625 -118.9375 C 53.472656 -118.9375 58.878906 -121.15625 62.984375 -125.59375 C 67.097656 -130.039062 69.15625 -135.617188 69.15625 -142.328125 C 69.15625 -149.203125 67.097656 -154.816406 62.984375 -159.171875 C 58.878906 -163.535156 53.472656 -165.71875 46.765625 -165.71875 C 40.234375 -165.71875 34.828125 -163.535156 30.546875 -159.171875 C 26.273438 -154.816406 24.140625 -149.203125 24.140625 -142.328125 C 24.140625 -135.617188 26.273438 -130.039062 30.546875 -125.59375 C 34.828125 -121.15625 40.234375 -118.9375 46.765625 -118.9375 Z M 46.765625 -118.9375 "/></g></g></g></g></g></svg>